<svg id="Calque_1" data-name="Calque 1" xmlns="http://www.w3.org/2000/svg" viewBox="0 0 67.17 123.03"><defs><style>.cls-1,.cls-2{fill:#cb0b0b;}.cls-1{fill-rule:evenodd;}</style></defs><title>logo</title><path class="cls-1" d="M65.62,14.47a16.05,16.05,0,0,1,16,16v87.95a16.05,16.05,0,0,1-16,16H33.54a16.05,16.05,0,0,1-16-16V56.18A27.72,27.72,0,1,0,54,14.47Z" transform="translate(-16 -12.97)"/><path class="cls-2" d="M65.62,14.47V16A14.56,14.56,0,0,1,80.17,30.51v87.95A14.56,14.56,0,0,1,65.62,133H33.54A14.54,14.54,0,0,1,19,118.46V56.18H17.5l-1,1.1a29.22,29.22,0,1,0,38.45-44l-1,1.16V16H65.62V13H54A1.51,1.51,0,0,0,53,15.64,26.22,26.22,0,1,1,18.53,55.09,1.5,1.5,0,0,0,16,56.18v62.28A17.55,17.55,0,0,0,33.54,136H65.62a17.56,17.56,0,0,0,17.55-17.54V30.51A17.56,17.56,0,0,0,65.62,13Z" transform="translate(-16 -12.97)"/><path class="cls-1" d="M41.84,26.66a10.18,10.18,0,1,1-12.56,14.6Z" transform="translate(-16 -12.97)"/><path class="cls-2" d="M41.84,26.66l-.56,1.39A8.68,8.68,0,1,1,30.57,40.5l-1.29.76,1.13,1L43,27.64l-1.14-1-.56,1.39.56-1.39-1.14-1L28.14,40.28A1.51,1.51,0,0,0,28,42,11.68,11.68,0,1,0,42.4,25.27a1.5,1.5,0,0,0-1.7.41Z" transform="translate(-16 -12.97)"/></svg>