<?xml version="1.0" encoding="UTF-8" standalone="no"?><!DOCTYPE svg PUBLIC "-//W3C//DTD SVG 1.1//EN" "http://www.w3.org/Graphics/SVG/1.1/DTD/svg11.dtd"><svg width="100%" height="100%" viewBox="0 0 68 124" version="1.1" xmlns="http://www.w3.org/2000/svg" xmlns:xlink="http://www.w3.org/1999/xlink" xml:space="preserve" xmlns:serif="http://www.serif.com/" style="fill-rule:evenodd;clip-rule:evenodd;stroke-linejoin:round;stroke-miterlimit:1.41421;"><path d="M49.62,1.5c8.767,0.027 15.973,7.233 16,16l0,87.95c-0.027,8.767 -7.233,15.973 -16,16l-32.08,0c-8.767,-0.027 -15.973,-7.233 -16,-16l0,-62.24c5.144,4.857 11.957,7.566 19.032,7.566c15.207,0 27.72,-12.513 27.72,-27.72c0,-8.365 -3.787,-16.297 -10.292,-21.556l11.62,0Z" style="fill:#fff;stroke:#fff;stroke-width:1px;"/><path d="M49.62,1.5l0,1.53c7.965,0.005 14.523,6.545 14.55,14.51l0,87.95c-0.011,7.976 -6.574,14.535 -14.55,14.54l-32.08,0c-7.976,0 -14.54,-6.564 -14.54,-14.54l0,-62.28l-1.5,0l-1,1.1c5.367,4.839 12.342,7.52 19.568,7.52c16.03,0 29.22,-13.19 29.22,-29.22c0,-8.587 -3.785,-16.751 -10.338,-22.3l-1,1.16l0,1.56l11.67,0l0,-3l-11.62,0c-0.828,0.001 -1.508,0.682 -1.508,1.51c0,0.432 0.185,0.844 0.508,1.13c6.231,4.972 9.866,12.523 9.866,20.494c0,14.384 -11.837,26.22 -26.22,26.22c-6.746,0 -13.239,-2.603 -18.116,-7.264c-0.278,-0.263 -0.647,-0.41 -1.03,-0.41c-0.823,0 -1.5,0.677 -1.5,1.5l0,62.28c0.005,9.62 7.92,17.535 17.54,17.54l32.08,0c9.622,-0.005 17.539,-7.918 17.55,-17.54l0,-87.95c-0.027,-9.61 -7.94,-17.505 -17.55,-17.51l0,1.47Z" style="fill:#fff;fill-rule:nonzero;stroke:#fff;stroke-width:1px;"/><path d="M25.84,13.69c3.859,1.542 6.403,5.298 6.403,9.454c0,5.584 -4.595,10.18 -10.18,10.18c-3.609,0 -6.958,-1.92 -8.783,-5.034l12.56,-14.6Z" style="fill:#fff;stroke:#fff;stroke-width:1px;"/><path d="M25.84,13.69l-0.56,1.39c3.289,1.315 5.458,4.517 5.458,8.06c0,4.762 -3.918,8.68 -8.68,8.68c-3.077,0 -5.932,-1.636 -7.488,-4.29l-1.29,0.76l1.13,1l12.59,-14.62l-1.14,-1l-0.56,1.39l0.56,-1.39l-1.14,-1l-12.58,14.64c-0.401,0.486 -0.457,1.175 -0.14,1.72c2.089,3.592 5.942,5.808 10.097,5.808c6.407,0 11.68,-5.272 11.68,-11.68c0,-4.779 -2.934,-9.097 -7.377,-10.858c-0.594,-0.241 -1.281,-0.076 -1.7,0.41l1.14,0.98Z" style="fill:#fff;fill-rule:nonzero;stroke:#fff;stroke-width:1px;"/></svg>