<svg id="Calque_1" data-name="Calque 1" xmlns="http://www.w3.org/2000/svg" viewBox="0 0 120.81 121.35"><defs><style>.cls-1{fill:#ff6f61;}</style></defs><title>logo_final</title><path class="cls-1" d="M68.86,6.69a48.86,48.86,0,0,1,4.61,22.64A49,49,0,0,1,6.13,72.93a2.49,2.49,0,0,0-3.38,2.8A61,61,0,1,0,71.49,3.18,2.49,2.49,0,0,0,68.86,6.69Z" transform="translate(-2.69 -3.15)"/><path class="cls-1" d="M14,54.54A29,29,0,0,0,50.89,15.47a3.91,3.91,0,0,0-6.4-1.08L12.58,48.23A3.91,3.91,0,0,0,14,54.54Z" transform="translate(-2.69 -3.15)"/></svg>