<?xml version="1.0" encoding="utf-8"?>
<!-- Generator: Adobe Illustrator 22.1.0, SVG Export Plug-In . SVG Version: 6.00 Build 0)  -->
<svg version="1.1" id="Calque_1" xmlns:serif="http://www.serif.com/"
	 xmlns="http://www.w3.org/2000/svg" xmlns:xlink="http://www.w3.org/1999/xlink" x="0px" y="0px" viewBox="0 0 504 795"
	 style="enable-background:new 0 0 504 795;" xml:space="preserve">
<style type="text/css">
	.st0{stroke:#000000;stroke-width:0.75;stroke-linecap:round;stroke-linejoin:round;stroke-miterlimit:1.5;}
	.st1{fill:url(#SVGID_1_);stroke:#232222;stroke-miterlimit:10;}
	.st2{fill:url(#SVGID_2_);stroke:#232222;stroke-miterlimit:10;}
	.st3{fill:#FAEFE3;stroke:#000000;stroke-miterlimit:10;}
	.st4{fill:none;stroke:#000000;stroke-width:0.75;stroke-miterlimit:10;}
	.st5{fill:#FFFFFF;stroke:#0A0202;stroke-miterlimit:10;}
	.st6{fill:#FAEFE3;stroke:#0A0202;stroke-miterlimit:10;}
	.st7{fill:#FFFFFF;stroke:#4D4D4D;stroke-miterlimit:10;}
	.st8{fill:none;stroke:#4D4D4D;stroke-linecap:round;stroke-linejoin:round;stroke-miterlimit:1.5;}
	.st9{fill:#FAEFE3;stroke:#232222;stroke-linecap:round;stroke-linejoin:round;stroke-miterlimit:1.5;}
	.st10{fill:#FFFFFF;}
	.st11{fill:none;stroke:#000000;stroke-miterlimit:10;}
	.st12{fill:#FAEFE3;stroke:#080000;stroke-miterlimit:10;}
	.st13{fill:none;stroke:#080000;stroke-miterlimit:10;}
	.st14{fill:#511A67;fill-opacity:0.2549;}
	.st15{stroke:#000000;stroke-linecap:round;stroke-linejoin:round;stroke-miterlimit:1.5;}
	.st16{fill:#9A5291;fill-opacity:0.7922;}
	.st17{fill:#FFFBFB;stroke:#000000;stroke-miterlimit:10;}
	.st18{fill:none;stroke:#000000;stroke-linecap:round;stroke-linejoin:round;stroke-miterlimit:1.5;}
</style>
<path class="st0" d="M411.7,311.3c-0.2,1.4,25.3-0.4,33.1,0c7.8,0.4,14.1,2.8,14.1,2.8s0.4-12.6-1.1-14.9h-0.8c0,0-4.8,0.4-9.5,0.4
	c0,0-26.3,0.4-30.3-0.1"/>
<g>
	
		<linearGradient id="SVGID_1_" gradientUnits="userSpaceOnUse" x1="-678.6045" y1="959.4725" x2="-677.6045" y2="959.4725" gradientTransform="matrix(-98.6499 -224.09 -224.09 98.6499 148353.2813 -246357.3125)">
		<stop  offset="0" style="stop-color:#FFFFFF"/>
		<stop  offset="0.69" style="stop-color:#8A1080;stop-opacity:0.251"/>
		<stop  offset="1" style="stop-color:#F46536;stop-opacity:0.6863"/>
	</linearGradient>
	<path class="st1" d="M171.4,289.2c-1.3-0.6-9.6,7-6,9c12.9,6.9,21.1,45.8,23.9,69.8c2.4,20.9,106.8,58,134.5,67.5
		c6.7,2.3,14,2.5,20.9,0.8c7.7-2,16.7-6.6,21.4-16.6c9.6-20.1-4-25.4,13.6-44.1c-2.1-8.1,1.9-21.7,4.7-29.7"/>
	
		<linearGradient id="SVGID_2_" gradientUnits="userSpaceOnUse" x1="-678.6045" y1="959.3651" x2="-677.6045" y2="959.3651" gradientTransform="matrix(-159.041 -276.933 -276.933 159.041 158068.5938 -340155.3438)">
		<stop  offset="0" style="stop-color:#FFFFFF"/>
		<stop  offset="0.5" style="stop-color:#8A1080;stop-opacity:0.251"/>
		<stop  offset="1" style="stop-color:#F46536;stop-opacity:0.6863"/>
	</linearGradient>
	<path class="st2" d="M384.4,345.8L384.4,345.8c1.4-3.9,2.5-6.4,2.5-6.4l13.6-6c0,0,3.6-1.7,0-9.4c-3.8-8.2-19.7-33.5-26.5-44.1
		c-0.1-0.2-0.2-0.4-0.3-0.5c-1.7-2.6-2.7-4.2-2.7-4.2l3,4.7l0.4-0.6l18.5-28L374,279.9l18.9-28.5l4.8-7.3c0.2-2,0.5-4.1,0-6
		c-0.9-3.5-2.8-6.8-4-10.3c-2.6-7.8-0.6-15-2-22.8c-0.7-3.9-1.6-7.7-2.8-11.6c-6.6-22.2-16.8-44.8-31.8-64
		c-6.9-8.8-15.2-17.7-26-23.3c4,6.2,8,12.4,11.8,18.6c3.9,6.5,11.9,19.9,14.1,27.7c0.2,0.7,2.5,9.1-0.3,11.8
		c-2.3,2.3-6.4-1.2-7.5-2.5c-7.9-9.6-6-10.7-15.8-20.1c-3.6-3.5-7.8-6.5-11.9-9.5c-2.2-1.6-5.4-4.6-7.8-3.3
		c-0.8,0.4-0.5,1.5-0.3,2.3c0.8,2,2.2,3.8,3.3,5.7c10.7,18.2,11.8,17.8,18.3,37.4c0.9,2.8,3.1,6.7,0.5,8.7c-0.6,0.5-1.8-0.2-2.3-0.7
		c-1.7-1.5-2.8-3.3-4.2-5c-10.6-12.9-10.7-12.8-23.5-24.4c-1.5-1.4-3.2-2.7-5.1-3.8c-0.6-0.4-1.7-0.8-2.2-0.4
		c-1.8,1.5,0.5,4.4,1.3,6.5c1.8,4.9,10,18.4,3.9,24c-4.9,4.5-15.6,1.8-21.6,1.4c-1.5-0.1-3.2-0.4-4,1c-1.1,1.8-0.6,5.3-4.7,3.2
		c-3.3-1.7-6.1-4-9-6.1c-2.5-1.8-4.7-3.9-7.4-5.5c-0.4-0.2-1.2,0.1-1.2,0.5c0.3,6,5,11.6,4.4,18c-0.1,1.4-0.3,3-1.4,4
		c-1.5,1.4-6.2-1.9-6.5-2.2c-14.9-12.4-13.6-13.3-28.6-25.6c-1.9-1.5-4-2.9-6.2-4.1c-1-0.6-3.4-1.1-3.6-0.1
		c-1.2,5.9,3.3,13,5.3,17.7c3.3,7.6,6.8,15.1,10,22.8c1.7,4.1,3.2,8.2,4.4,12.4c0.2,0.7,4.2,9.3-1.6,9.5c-5.4,0.2-12-3.8-15.4-6.3
		c-4-3-7.2-6.6-10.9-9.8c-0.8-0.7-1.5-1.6-2.6-1.7c-0.8-0.1-1.3,0.8-1.6,1.4c-0.8,2.1-1.5,17-8.9,14.8
		c-10.3-3.1-15.5-16.1-20.6-23.1c-1-1.3-3.6-4.1-4.6-2.7c-1.7,2.5-0.8,12.4-0.8,13c-0.2,6.9-1.6,14.3-7.3,19.7
		c-2.5,2.4-5.9,5.1-10,4.6c-6-0.7-13.3-6.5-16.3-9c-13-11.1-19.4-21.2-29.2-34.7c-2.7-3.7-5-7.7-7.8-11.4c-0.4-0.5-2.3-2.3-3.5-1.4
		c-4.1,2.9-1.1,15.7-0.9,17c1.6,8.5,5.4,20.5,8.6,28.7c4,10.1,11.3,19.3,12.8,29.9c0.6,4.1-4.4,3.1-6.9,1.9
		c-6.7-3.2-5.8-4.3-12.9-6.6c-3.4-1.1-5.3,1.1-4.7,3.7c1.1,4.5,6.5,10.7,9.1,13.2c14.6,14.2,31.2,18.6,52.3,23.8
		c3.8,0.9,15.1,1.1,19.5-0.6"/>
</g>
<g>
	<path class="st3" d="M152,343.4c-1.6-0.8-12.1,10.5-7.5,13.4c16.2,10.4,26.4,68.4,29.9,104.4c3,31.4,136.1,87.6,169.4,101.2
		c7,2.8,14.8,3.4,22.2,1.6c10.3-2.5,23.5-8.9,30.1-25.7c12-30-5-38,17-66c-2.7-12.1,2.3-32.4,5.9-44.4l0,0c1.7-5.8,3.1-9.6,3.1-9.6
		l17-9c0,0,4.5-2.5,0-14c-4.8-12.2-24.8-50.1-33.2-65.9c-0.2-0.3-0.3-0.6-0.4-0.8c-2.1-3.9-3.4-6.3-3.4-6.3l3.8,7.1l0.5-0.8
		l23.2-41.8l-23.7,42.7l23.7-42.7l6-10.9c0.3-3,0.6-6.1,0-9c-1.1-5.3-3.6-10.2-5-15.4c-3.2-11.7-0.8-22.4-2.5-34.1
		c-0.8-5.8-2.1-11.6-3.5-17.3c-8.2-33.2-21-67-39.9-95.7c-7.2-11-15.8-22.3-26.4-30.6c-0.7-0.5-1.6-0.5-2.2,0.1
		c-0.6,0.5-0.8,1.5-0.4,2.2c3.8,7,7.6,14.1,11.2,21.2c4.9,9.7,14.9,29.7,17.7,41.4c0.3,1.1,3.1,13.6-0.3,17.7
		c-2.8,3.4-8.3-1.7-9.4-3.7c-6.3-11.5-7.5-15.9-19.8-30.1c-4.5-5.2-9.7-9.7-14.9-14.2c-2.8-2.4-6.7-6.8-9.8-4.9
		c-1,0.6-0.7,2.3-0.3,3.4c1,3,2.8,5.6,4.2,8.5c13.4,27.3,14.8,26.6,23,55.9c1.2,4.2,3.8,10.1,0.7,13c-0.8,0.7-2.2-0.3-2.9-1
		c-2.1-2.2-3.6-4.9-5.3-7.5c-13.3-19.3-13.5-19.1-29.5-36.5c-1.9-2.1-4-4.1-6.4-5.7c-0.8-0.5-2.1-1.2-2.8-0.6
		c-2.3,2.3,0.7,6.5,1.7,9.7c2.3,7.3,12.5,27.5,4.8,35.9c-6.2,6.7-19.6,2.7-27.1,2.1c-1.9-0.1-4-0.6-5,1.5c-1.4,2.7-0.7,7.9-5.9,4.8
		c-4.1-2.5-7.6-5.9-11.3-9.1c-3.2-2.7-5.9-5.9-9.3-8.3c-0.5-0.3-1.5,0.2-1.5,0.7c0.4,9,6.3,17.4,5.5,26.9c-0.2,2.1-0.4,4.5-1.8,6
		c-1.9,2-7.8-2.9-8.1-3.2c-18.6-18.6-17-19.9-35.8-38.2c-2.4-2.3-5.1-4.3-7.8-6.1c-1.2-0.8-4.2-1.7-4.5-0.2
		c-1.5,8.8,4.1,19.4,6.6,26.4c4.1,11.4,8.6,22.6,12.5,34c2.1,6.1,4,12.3,5.5,18.6c0.2,1,5.2,13.9-2,14.2c-6.7,0.2-15.1-5.7-19.3-9.5
		c-5-4.4-9-9.9-13.7-14.7c-1-1-1.9-2.4-3.3-2.5c-0.9-0.1-1.7,1.2-2,2.1c-1,3.1-1.9,25.4-11.1,22.1c-12.9-4.6-19.4-24-25.9-34.5
		c-1.2-2-4.6-6.1-5.7-4c-2.2,3.8-1,18.5-1,19.4c-0.2,10.4-2.1,21.3-9.1,29.5c-3.1,3.6-7.4,7.6-12.6,6.9c-7.5-1.1-16.7-9.7-20.4-13.4
		c-16.3-16.5-24.4-31.7-36.6-51.8c-3.4-5.6-6.3-11.5-9.8-17c-0.4-0.7-2.9-3.4-4.4-2.1c-5.2,4.3-1.4,23.4-1.1,25.5
		c2,12.7,6.7,30.7,10.7,42.8c5,15.1,14.1,28.8,16,44.8c0.7,6.2-5.5,4.6-8.6,2.9c-8.4-4.7-7.2-6.4-16.2-9.8c-4.3-1.7-6.6,1.7-5.8,5.5
		c1.3,6.7,8.2,16,11.4,19.8c18.3,21.2,39.1,27.9,65.5,35.5c4.7,1.4,18.9,1.6,24.5-0.9"/>
</g>
<path class="st4" d="M356.9,469.1l30-8c0,0,8,7,15,2l5,6"/>
<path class="st4" d="M379.9,472.1c0,0,15,3,21,0"/>
<path class="st5" d="M347.7,563.9c0,0,27,75,23,102s-79,110-79,110C208.2,760.4,90.2,641.4,96.2,616.4c45-42,54.4-201,54.4-201
	l2.8-52.2l24.9,66.6"/>
<path class="st6" d="M347.7,563.9c0,0,27,75,23,102s-79,110-79,110C208.2,760.4,90.2,641.4,96.2,616.4c45-42,54.4-201,54.4-201
	l2.8-52.2l24.9,66.6"/>
<path class="st7" d="M150.4,344c-4.3,3.1-8.7,8.2-7,12.2c1.1,2.6,8.7,2.2,17.3,30.7c4.6,15.2,9.4,38.6,13.7,75
	c12.5,40.2,173.3,102,173.3,102"/>
<path class="st8" d="M56,110.3c0,0-3.1,23.2,3.3,31.2c6.5,8.1-2.6-14,6.1-26.1C69.4,109.9,60.3,88.5,56,110.3L56,110.3z"/>
<path class="st9" d="M56,110.3c0,0-3.1,23.2,3.3,31.2c6.5,8.1-2.6-14,6.1-26.1C69.4,109.9,60.3,88.5,56,110.3L56,110.3z"/>
<path class="st9" d="M159.2,185.1c0,0,0.4-14.1-4.9-18.2C149,162.7,141,164.3,159.2,185.1"/>
<path class="st10" d="M258.3,311.5c0,0,20.4-12.8,51.4-14.5c0,0-11.7,13-0.5,29C309.2,326,277.5,327.7,258.3,311.5L258.3,311.5z"/>
<path class="st10" d="M396.7,311c0,0-6.2-9.4,0.4-10.6c3.8-0.7,9.8-3.1,21.5-0.3c0,0-4.7,16.5-8.7,17.8
	C409.9,317.9,402.3,319.2,396.7,311L396.7,311z"/>
<path class="st9" d="M339.6,58.6c0,0-2.5-9.6-9.2-14.6c-11.9-8.9-18.7-17.8-17.7-24.3C314.3,8.7,337,36,339.6,58.6z"/>
<path class="st11" d="M316.1,325.7c-40.7,3-57.8-14.3-57.8-14.3s28.1-17.3,61-14"/>
<path class="st11" d="M403.6,299.1c0,0,13-1,15,1c0,0-4.7,15.8-8,17.7l0.7-0.5c-2,2.6-9.7-1.1-9.7-1.1"/>
<path class="st11" d="M411.3,298.8c0,0-5.3,7-1.2,19.1"/>
<path class="st11" d="M396.1,538.5c12-30-5-38,17-66c-2.7-12.1,2.3-32.4,5.9-44.4"/>
<path class="st12" d="M158.1,407.4c0,0-1.1,4.3-4.1,6.6c-1.1,0.8-2.4,1.4-3.9,1.4c-6,0-7-11-14-14s-51-36-44-90c4-26,28-28,44-15
	s18,36,18,36"/>
<path class="st13" d="M146.7,330.9c0,0-6.5-34.3-32.9-34.3c-5.5,0-10.5,3.5-12.2,8.8c-3.7,11.7-7.4,35.8,11,63.5"/>
<path class="st13" d="M110.7,311.9c0,0-6,54,25,67"/>
<path class="st13" d="M113.7,329.9c0,0,7,13,22,0"/>
<path class="st13" d="M129.7,339.9c0,0-16,35,21,39"/>
<path class="st12" d="M150.4,344c-4.3,3.1-8.7,8.2-7,12.2c1.1,2.6,8.7,2.2,17.3,30.7c4.6,15.2,9.4,38.6,13.7,75
	c12.5,40.2,173.3,102,173.3,102"/>
<path class="st14" d="M96,617.8c0,0,46.8-43,53.6-200.8l1-2.5c0,0-6.2-2.7-9.4-10.4c0,0-2.2-2.5-7.2-4.5c0,0-38.7-29.8-42.7-65.5
	c0,0-42.2-21.4-44.1-46.5c0,0,0.9-4.4,5.3-3.3c0,0,8.5,3.4,12.4,7.2c0,0,9,7,12.3,3.8c0,0,2.7-1.9-2.3-15.2
	c-4.9-13.3-34.7-83.9-22.9-101.2c0,0,3.4-1.9,5.6,1.2c0,0,30.9,61.8,50.1,72.7c0,0,5.4,9.6,17.1,9.6c0,0,4.3,1.3,11.8-7
	c0,0,3.9-4.5,6.4-11.4c0,0,13.7,55.3,23.4,61.1c9.7,5.8,12.3,174.4,46.1,192.5c0,0-16.3-12.1-30.2-10.3c0,0-53.2,164.3-39.3,193.9
	C143,681.2,100.3,642.5,96,617.8L96,617.8z"/>
<path class="st15" d="M140.1,300c-4.6-5.7-14-9.7-14-9.7s120.7-7.5,148.3-3.8c0,0,69.4-14.9,106.2,4.5c0,0,6.1,2.8,14.3,2.6
	c0,0,48.9-11.3,71.1,3.5c0.7,0.5,1.1,1.3,1,2.1c-0.1,3.4-0.3,12.4-1,14.1c0,0-1.3,1.4-1.8,3.1c0,0-2,26.2-13.3,33.3
	c0,0-15,8.7-32.6,3.5c0,0-0.3-0.7-1.4-3c3.7,2.7,18.1,1.7,18.1,1.7c5.1,0,9.2-1.2,12.3-2.7c4.5-2.1,8-5.9,9.7-10.5
	c6.4-17.2,4.7-33.5,4-38.3c-0.2-1-0.7-1.8-1.6-2.4c-12.1-7.5-35.9-4.6-42.7-3.6c-7,1.1-10,6.4-10.8,9.7c-1.3,5.2-1.7,22-1.7,22
	l0.9,1.8c-4.1-7-8.6-15.3-12.4-19.7c0,0-2.5-3.5-5.5,3.9c-0.4,1-0.4,0.7-1.4,3c-1.3,2.9-4.7,13.9-10.9,23
	c-5.1,7.5-13.1,12.4-22.1,13.7c-14.3,1.9-43.1,3.7-57-10.5c0,0-8.7-8.3-10.2-30.9c0,0,0.2-8-12.1-8.5c0,0-82.8,1.4-93,0.8
	C180.6,302.8,151.8,300.4,140.1,300L140.1,300z M308.4,286.4c-6.2,2.1-10.4,7.7-10.7,14.2c-0.4,10.4-1,33.3,2.4,38.9c0,0,0,0,0,0
	c0.5,0.9,9,15.3,52.2,9.4c9.7-1.3,18.2-6.8,23.4-15.1c3.9-6.2,7.1-15.1,7.8-27.5c0-0.2,0-0.4,0.1-0.7c0.3-2.4,0.3-10.5-9.9-14.4
	c0,0-28.9-12.4-62.8-5.6C310.8,285.7,309.8,285.9,308.4,286.4L308.4,286.4z"/>
<path class="st16" d="M237.1,285.2c0,0,102-29.8,113.6-20.5c11.6,9.3,4.8,5.8,4.8,8.3C355.4,275.5,351.6,266.5,237.1,285.2
	L237.1,285.2z"/>
<path class="st16" d="M406.4,272.2c0,0,3.2-8.4,8.9-8.1c7.2,0.3,18.7-0.2,20.3,10.9c0,0-4.2-4.6-26.3-3L406.4,272.2z"/>
<path class="st17" d="M315.3,297.1c2,5,3.3,17.4-1,28.6l-0.2,0.1l-5.2,0.2c-10.2-17.3,1-29,1-29l2.1,0L315.3,297.1L315.3,297.1z"/>
<path class="st18" d="M304.6,286.4c-6.1,2.1-10.4,7.7-10.7,14.2c-0.4,10.4-1,33.2,2.4,38.8c0,0,0,0,0,0c0.5,0.9,9,15.3,52,9.4
	c9.6-1.3,18.2-6.8,23.3-15.1c3.9-6.2,7.1-15,7.7-27.4c0-0.2,0-0.4,0.1-0.7c0.3-2.4,0.3-10.5-9.9-14.4c0,0-28.9-12.3-62.6-5.6
	C307,285.8,306,285.9,304.6,286.4L304.6,286.4z"/>
<path class="st18" d="M402.4,323c0,0-0.6-13.6,0.7-18.7c0.8-3.3,3.8-8.6,10.8-9.7c6.8-1,30.5-4,42.6,3.6c0.8,0.5,1.4,1.4,1.6,2.4
	c0.7,4.8,2.4,21-4,38.2c-1.7,4.6-5.2,8.4-9.7,10.5c-3.1,1.5-7.1,2.6-12.2,2.7c0,0-12,0.4-15.7-2.3"/>
<path class="st18" d="M124.8,290.1c0,0,119.5-7.3,147.2-3.6c0,0,69.3-14.8,105.9,4.5c0,0,6.1,2.8,14.3,2.6c0,0,48.8-11.2,70.9,3.5
	c0.7,0.5,1.1,1.2,1,2.1c-0.1,3.4-0.3,12.4-1,14.1c0,0-1.3,1.4-1.8,3c0,0-3.3,28.6-12.6,33.5c0,0-13,8.3-30.5,3.2
	c0,0-15.4-32.5-26.5-45.2c0,0-3.2-2.1-7.4,4.4c-0.6,0.9-1.1,2-1.4,3c-1,3-4.6,13.9-10.8,22.9c-5.1,7.4-13.1,12.4-22,13.6
	c-14.3,1.9-43,3.6-56.9-10.5c0,0-8.7-8.2-10.1-30.8c0,0,0.2-8-12-8.4c0,0-82.7,1.4-92.8,0.8c0,0-26.9-2.7-38.6-3.1c0,0,0.2,0.2,0,0"
	/>
</svg>
